<?xml version="1.0" encoding="UTF-8"?>
<svg xmlns="http://www.w3.org/2000/svg" xmlns:xlink="http://www.w3.org/1999/xlink" version="1.1" width="700px" height="700px" viewBox="0 0 700 700"><defs><rect id="r0" width="24" height="24" fill="#ff0000"/></defs><rect x="0" y="0" width="700" height="700" fill="#fefefe"/><use x="98" y="98" xlink:href="#r0"/><use x="122" y="98" xlink:href="#r0"/><use x="146" y="98" xlink:href="#r0"/><use x="170" y="98" xlink:href="#r0"/><use x="194" y="98" xlink:href="#r0"/><use x="218" y="98" xlink:href="#r0"/><use x="242" y="98" xlink:href="#r0"/><use x="314" y="98" xlink:href="#r0"/><use x="338" y="98" xlink:href="#r0"/><use x="362" y="98" xlink:href="#r0"/><use x="386" y="98" xlink:href="#r0"/><use x="434" y="98" xlink:href="#r0"/><use x="458" y="98" xlink:href="#r0"/><use x="482" y="98" xlink:href="#r0"/><use x="506" y="98" xlink:href="#r0"/><use x="530" y="98" xlink:href="#r0"/><use x="554" y="98" xlink:href="#r0"/><use x="578" y="98" xlink:href="#r0"/><use x="98" y="122" xlink:href="#r0"/><use x="242" y="122" xlink:href="#r0"/><use x="314" y="122" xlink:href="#r0"/><use x="362" y="122" xlink:href="#r0"/><use x="434" y="122" xlink:href="#r0"/><use x="578" y="122" xlink:href="#r0"/><use x="98" y="146" xlink:href="#r0"/><use x="146" y="146" xlink:href="#r0"/><use x="170" y="146" xlink:href="#r0"/><use x="194" y="146" xlink:href="#r0"/><use x="242" y="146" xlink:href="#r0"/><use x="314" y="146" xlink:href="#r0"/><use x="434" y="146" xlink:href="#r0"/><use x="482" y="146" xlink:href="#r0"/><use x="506" y="146" xlink:href="#r0"/><use x="530" y="146" xlink:href="#r0"/><use x="578" y="146" xlink:href="#r0"/><use x="98" y="170" xlink:href="#r0"/><use x="146" y="170" xlink:href="#r0"/><use x="170" y="170" xlink:href="#r0"/><use x="194" y="170" xlink:href="#r0"/><use x="242" y="170" xlink:href="#r0"/><use x="290" y="170" xlink:href="#r0"/><use x="314" y="170" xlink:href="#r0"/><use x="338" y="170" xlink:href="#r0"/><use x="362" y="170" xlink:href="#r0"/><use x="434" y="170" xlink:href="#r0"/><use x="482" y="170" xlink:href="#r0"/><use x="506" y="170" xlink:href="#r0"/><use x="530" y="170" xlink:href="#r0"/><use x="578" y="170" xlink:href="#r0"/><use x="98" y="194" xlink:href="#r0"/><use x="146" y="194" xlink:href="#r0"/><use x="170" y="194" xlink:href="#r0"/><use x="194" y="194" xlink:href="#r0"/><use x="242" y="194" xlink:href="#r0"/><use x="290" y="194" xlink:href="#r0"/><use x="338" y="194" xlink:href="#r0"/><use x="362" y="194" xlink:href="#r0"/><use x="386" y="194" xlink:href="#r0"/><use x="434" y="194" xlink:href="#r0"/><use x="482" y="194" xlink:href="#r0"/><use x="506" y="194" xlink:href="#r0"/><use x="530" y="194" xlink:href="#r0"/><use x="578" y="194" xlink:href="#r0"/><use x="98" y="218" xlink:href="#r0"/><use x="242" y="218" xlink:href="#r0"/><use x="338" y="218" xlink:href="#r0"/><use x="386" y="218" xlink:href="#r0"/><use x="434" y="218" xlink:href="#r0"/><use x="578" y="218" xlink:href="#r0"/><use x="98" y="242" xlink:href="#r0"/><use x="122" y="242" xlink:href="#r0"/><use x="146" y="242" xlink:href="#r0"/><use x="170" y="242" xlink:href="#r0"/><use x="194" y="242" xlink:href="#r0"/><use x="218" y="242" xlink:href="#r0"/><use x="242" y="242" xlink:href="#r0"/><use x="290" y="242" xlink:href="#r0"/><use x="338" y="242" xlink:href="#r0"/><use x="386" y="242" xlink:href="#r0"/><use x="434" y="242" xlink:href="#r0"/><use x="458" y="242" xlink:href="#r0"/><use x="482" y="242" xlink:href="#r0"/><use x="506" y="242" xlink:href="#r0"/><use x="530" y="242" xlink:href="#r0"/><use x="554" y="242" xlink:href="#r0"/><use x="578" y="242" xlink:href="#r0"/><use x="314" y="266" xlink:href="#r0"/><use x="338" y="266" xlink:href="#r0"/><use x="362" y="266" xlink:href="#r0"/><use x="386" y="266" xlink:href="#r0"/><use x="98" y="290" xlink:href="#r0"/><use x="122" y="290" xlink:href="#r0"/><use x="218" y="290" xlink:href="#r0"/><use x="242" y="290" xlink:href="#r0"/><use x="266" y="290" xlink:href="#r0"/><use x="314" y="290" xlink:href="#r0"/><use x="386" y="290" xlink:href="#r0"/><use x="482" y="290" xlink:href="#r0"/><use x="506" y="290" xlink:href="#r0"/><use x="98" y="314" xlink:href="#r0"/><use x="122" y="314" xlink:href="#r0"/><use x="194" y="314" xlink:href="#r0"/><use x="266" y="314" xlink:href="#r0"/><use x="386" y="314" xlink:href="#r0"/><use x="410" y="314" xlink:href="#r0"/><use x="434" y="314" xlink:href="#r0"/><use x="530" y="314" xlink:href="#r0"/><use x="98" y="338" xlink:href="#r0"/><use x="122" y="338" xlink:href="#r0"/><use x="146" y="338" xlink:href="#r0"/><use x="170" y="338" xlink:href="#r0"/><use x="242" y="338" xlink:href="#r0"/><use x="290" y="338" xlink:href="#r0"/><use x="314" y="338" xlink:href="#r0"/><use x="362" y="338" xlink:href="#r0"/><use x="410" y="338" xlink:href="#r0"/><use x="434" y="338" xlink:href="#r0"/><use x="506" y="338" xlink:href="#r0"/><use x="530" y="338" xlink:href="#r0"/><use x="554" y="338" xlink:href="#r0"/><use x="98" y="362" xlink:href="#r0"/><use x="170" y="362" xlink:href="#r0"/><use x="194" y="362" xlink:href="#r0"/><use x="218" y="362" xlink:href="#r0"/><use x="290" y="362" xlink:href="#r0"/><use x="338" y="362" xlink:href="#r0"/><use x="410" y="362" xlink:href="#r0"/><use x="458" y="362" xlink:href="#r0"/><use x="506" y="362" xlink:href="#r0"/><use x="530" y="362" xlink:href="#r0"/><use x="554" y="362" xlink:href="#r0"/><use x="170" y="386" xlink:href="#r0"/><use x="194" y="386" xlink:href="#r0"/><use x="218" y="386" xlink:href="#r0"/><use x="242" y="386" xlink:href="#r0"/><use x="266" y="386" xlink:href="#r0"/><use x="290" y="386" xlink:href="#r0"/><use x="314" y="386" xlink:href="#r0"/><use x="458" y="386" xlink:href="#r0"/><use x="482" y="386" xlink:href="#r0"/><use x="554" y="386" xlink:href="#r0"/><use x="578" y="386" xlink:href="#r0"/><use x="290" y="410" xlink:href="#r0"/><use x="386" y="410" xlink:href="#r0"/><use x="410" y="410" xlink:href="#r0"/><use x="530" y="410" xlink:href="#r0"/><use x="98" y="434" xlink:href="#r0"/><use x="122" y="434" xlink:href="#r0"/><use x="146" y="434" xlink:href="#r0"/><use x="170" y="434" xlink:href="#r0"/><use x="194" y="434" xlink:href="#r0"/><use x="218" y="434" xlink:href="#r0"/><use x="242" y="434" xlink:href="#r0"/><use x="290" y="434" xlink:href="#r0"/><use x="338" y="434" xlink:href="#r0"/><use x="386" y="434" xlink:href="#r0"/><use x="410" y="434" xlink:href="#r0"/><use x="554" y="434" xlink:href="#r0"/><use x="98" y="458" xlink:href="#r0"/><use x="242" y="458" xlink:href="#r0"/><use x="290" y="458" xlink:href="#r0"/><use x="338" y="458" xlink:href="#r0"/><use x="362" y="458" xlink:href="#r0"/><use x="410" y="458" xlink:href="#r0"/><use x="434" y="458" xlink:href="#r0"/><use x="482" y="458" xlink:href="#r0"/><use x="506" y="458" xlink:href="#r0"/><use x="530" y="458" xlink:href="#r0"/><use x="578" y="458" xlink:href="#r0"/><use x="98" y="482" xlink:href="#r0"/><use x="146" y="482" xlink:href="#r0"/><use x="170" y="482" xlink:href="#r0"/><use x="194" y="482" xlink:href="#r0"/><use x="242" y="482" xlink:href="#r0"/><use x="338" y="482" xlink:href="#r0"/><use x="362" y="482" xlink:href="#r0"/><use x="434" y="482" xlink:href="#r0"/><use x="458" y="482" xlink:href="#r0"/><use x="554" y="482" xlink:href="#r0"/><use x="578" y="482" xlink:href="#r0"/><use x="98" y="506" xlink:href="#r0"/><use x="146" y="506" xlink:href="#r0"/><use x="170" y="506" xlink:href="#r0"/><use x="194" y="506" xlink:href="#r0"/><use x="242" y="506" xlink:href="#r0"/><use x="314" y="506" xlink:href="#r0"/><use x="338" y="506" xlink:href="#r0"/><use x="410" y="506" xlink:href="#r0"/><use x="434" y="506" xlink:href="#r0"/><use x="482" y="506" xlink:href="#r0"/><use x="506" y="506" xlink:href="#r0"/><use x="98" y="530" xlink:href="#r0"/><use x="146" y="530" xlink:href="#r0"/><use x="170" y="530" xlink:href="#r0"/><use x="194" y="530" xlink:href="#r0"/><use x="242" y="530" xlink:href="#r0"/><use x="314" y="530" xlink:href="#r0"/><use x="338" y="530" xlink:href="#r0"/><use x="386" y="530" xlink:href="#r0"/><use x="410" y="530" xlink:href="#r0"/><use x="434" y="530" xlink:href="#r0"/><use x="458" y="530" xlink:href="#r0"/><use x="482" y="530" xlink:href="#r0"/><use x="554" y="530" xlink:href="#r0"/><use x="578" y="530" xlink:href="#r0"/><use x="98" y="554" xlink:href="#r0"/><use x="242" y="554" xlink:href="#r0"/><use x="290" y="554" xlink:href="#r0"/><use x="386" y="554" xlink:href="#r0"/><use x="410" y="554" xlink:href="#r0"/><use x="482" y="554" xlink:href="#r0"/><use x="506" y="554" xlink:href="#r0"/><use x="530" y="554" xlink:href="#r0"/><use x="98" y="578" xlink:href="#r0"/><use x="122" y="578" xlink:href="#r0"/><use x="146" y="578" xlink:href="#r0"/><use x="170" y="578" xlink:href="#r0"/><use x="194" y="578" xlink:href="#r0"/><use x="218" y="578" xlink:href="#r0"/><use x="242" y="578" xlink:href="#r0"/><use x="290" y="578" xlink:href="#r0"/><use x="314" y="578" xlink:href="#r0"/><use x="362" y="578" xlink:href="#r0"/><use x="434" y="578" xlink:href="#r0"/><use x="482" y="578" xlink:href="#r0"/><use x="554" y="578" xlink:href="#r0"/></svg>
